# xmcd
#
# Track frame offsets:
#	150
#	29015
#	58903
#	83033
#	104647
#	121769
#	138570
#	166955
#	187233
#	206157
#	226923
#	250036
#	267430
#	287367
#	302863
#
# Disc length: 4521 seconds
#
# Revision: 0
# Processed by: cddbd v1.5.2PL0 Copyright (c) Steve Scherf et al.
# Submitted via: EasyCDDAExtractor 15.3.0.1
#
DISCID=df11a70f
DTITLE=Various Artist - 2012 Steppin' Music Vol. 16
DYEAR=2012
DGENRE=R&B
TTITLE0=Marc Anthony - Make It With You
TTITLE1=Soul Sensation - In The Middle
TTITLE2=Teddy Pendergrass - Be Sure
TTITLE3=Common - Misunderstood
TTITLE4=Musiq Soulchild - Yes
TTITLE5=Joe - Sweeter Than Sugar
TTITLE6=DJ Markey G - Look At Her
TTITLE7=Maysa - Love Comes Easy
TTITLE8=The Tony Rich Project - Jordan
TTITLE9=Jay-Z Ft. Kanye West - New Day
TTITLE10=River - Understanding
TTITLE11=Theievery Corporation - 33 Degree
TTITLE12=Felony - Don't Stop, Get It
TTITLE13=Madlie - That's The Way It's Gonna Be
TTITLE14=Slum Billage ft. Dwele - Tainted
EXTD=
EXTT0=
EXTT1=
EXTT2=
EXTT3=
EXTT4=
EXTT5=
EXTT6=
EXTT7=
EXTT8=
EXTT9=
EXTT10=
EXTT11=
EXTT12=
EXTT13=
EXTT14=
PLAYORDER=
